<svg width="512" height="512" viewBox="0 0 512 512" fill="none" xmlns="http://www.w3.org/2000/svg">
<path d="M171.307 181.7C179.862 181.7 187.554 182.898 193.044 186.26C198.311 189.485 201.852 194.885 201.852 204.224C201.852 212.946 199.015 218.705 194.501 222.351C189.894 226.073 183.166 227.9 174.848 227.9H128.559V181.7H171.307Z" stroke="black" stroke-width="5"/>
<path d="M322.063 262.183C323.137 253.51 326.596 246.579 331.81 241.697C337.547 236.325 345.618 233.241 355.541 233.241C366.013 233.241 373.537 236.279 378.689 241.534C383.41 246.349 386.393 253.284 387.601 262.183H322.063Z" stroke="black" stroke-width="5"/>
<path d="M128.452 324.817V269.359H178.511C188.852 269.411 196.827 271.589 202.194 276.087C207.477 280.513 210.652 287.542 210.663 298.285C210.662 308.622 206.965 315.055 201.275 319.021C195.423 323.099 187.107 324.817 177.493 324.817H128.452Z" stroke="black" stroke-width="5"/>
<path d="M184.114 367.3H184.107H77.7173H75.2173V364.8V145.365V142.865H77.7173H181.141C200.089 142.865 218.215 145.523 231.663 154.02C245.328 162.653 253.807 177.081 253.807 199.637C253.807 211.084 251.127 219.879 245.7 227.048C241.321 232.831 235.272 237.396 227.79 241.458C252.2 251.095 263.854 274.575 263.855 300.905L184.114 367.3ZM184.114 367.3L184.121 367.3M184.114 367.3L184.121 367.3M184.121 367.3C204.414 367.181 224.291 362.276 239.165 351.511M184.121 367.3L239.165 351.511M239.165 351.511C254.139 340.672 263.865 324.005 263.855 300.907L239.165 351.511ZM310.507 150.759H308.007V153.259V174.848V177.348H310.507H399.424H401.924V174.848V153.259V150.759H399.424H310.507ZM433.941 294.724H436.342L436.439 292.326C436.472 291.523 436.52 290.66 436.569 289.763C436.672 287.897 436.783 285.887 436.783 283.989C436.783 260.035 429.762 237.89 416.217 221.687C402.63 205.434 382.608 195.324 357.035 195.324C307.08 195.324 273.276 232.903 273.276 281.92C273.276 307.194 281.252 328.711 295.832 343.927C310.424 359.156 331.424 367.855 357.035 367.855C376.373 367.855 392.548 363.512 405.448 354.321C418.353 345.127 427.736 331.256 433.801 312.647L434.868 309.372H431.424H392.917H391.076L390.53 311.131C388.672 317.118 383.932 321.849 377.857 325.122C371.786 328.392 364.622 330.065 358.4 330.065C346.09 330.065 337.079 326.477 331.128 320.188C325.568 314.313 322.383 305.771 321.97 294.724H433.941ZM90.6667 8.89999H421.333C470.086 8.89999 509.5 48.314 509.5 97.0667V414.933C509.5 463.686 470.086 503.1 421.333 503.1H90.6667C41.914 503.1 2.5 463.686 2.5 414.933V97.0667C2.5 48.314 41.914 8.89999 90.6667 8.89999Z" stroke="black" stroke-width="5"/>
</svg>
